<svg height="150" viewBox="0 0 650 150" width="650" xmlns="http://www.w3.org/2000/svg" xmlns:xlink="http://www.w3.org/1999/xlink"><defs><path id="a" d="m175.451701 91.2525949c.13939-.5575603.27878-1.1151206.41817-1.6726808 6.133163-24.3932622-8.781574-53.3863966-34.150567-68.5799141 11.151206 15.0541275 16.029858 33.3142265 11.708766 49.2046944-.41817 1.3939007-.83634 2.7878014-1.393901 4.1817021-.55756-.4181702-1.25451-.8363404-2.230241-1.2545106 0 0-25.229602-15.6116878-52.550056-43.0715314-.6969503-.6969503 14.635957 21.8842409 31.920326 40.1443399-8.224014-4.5998722-30.9445955-21.1872905-45.4411627-34.289957 1.8120709 2.9271915 3.902922 5.8543829 6.1331631 8.5027942 11.9875456 15.3329076 27.7386236 34.150567 46.5562836 48.6471342-13.242057 8.0846242-31.920326 8.7815742-50.4592056 0-4.5998722-2.090851-8.9209644-4.7392624-12.9632764-7.6664538 7.8058439 12.5451062 19.9327799 23.417532 34.708127 29.829475 17.563149 7.527064 35.126298 7.108893 48.089574.13939 0 0 .13939 0 .13939-.13939.55756-.27878 1.115121-.696951 1.672681-.975731 6.272553-3.205971 18.538879-6.411943 25.229603 6.411944 1.951461 2.927191 5.436212-13.799617-7.387674-29.4113051z"/><filter id="b" height="126%" width="123.3%" x="-13.4%" y="-15%"><feOffset dx="-2" dy="-2" in="SourceAlpha" result="shadowOffsetOuter1"/><feGaussianBlur in="shadowOffsetOuter1" result="shadowBlurOuter1" stdDeviation="2"/><feColorMatrix in="shadowBlurOuter1" type="matrix" values="0 0 0 0 0   0 0 0 0 0   0 0 0 0 0  0 0 0 0.5 0"/></filter></defs><g fill="none" fill-rule="evenodd"><g stroke="#767f87" transform="translate(16 20)"><g stroke-width="10"><path d="m162.25 0v109"/><path d="m122.208333 0v109"/><path d="m83.2083333 0v109"/><path d="m44.2083333 0v109"/><path d="m5.10833333 0v109"/><path d="m5 104.25h161.5"/><path d="m6 74.25h160.5"/><path d="m3 44.25h163.5"/></g><path d="m0 6.5h167" stroke-width="26"/></g><g fill-rule="nonzero" transform="translate(16 20)"><use fill="#000" filter="url(#b)" xlink:href="#a"/><use fill="#f05138" xlink:href="#a"/></g><text fill="#000" font-family="Courier-Bold, Courier" font-size="60" font-weight="bold" letter-spacing="-.514285684"><tspan x="226.296345" y="95">Codable</tspan> <tspan x="474.737361" y="95"/> <tspan font-size="70" x="492.226005" y="95">CSV</tspan></text></g></svg>