<svg height="307" viewBox="0 0 884 307" width="884" xmlns="http://www.w3.org/2000/svg"><g fill="none" fill-rule="evenodd" transform="translate(2 -4)"><g transform="translate(4 47.5)"><path d="m59.5 109.99142c14.6666667.292808 22-6.908835 22-21.6049266 0-14.696092 0-40.5828773 0-77.6603558" stroke="#4b536a" stroke-width="3"/><g fill="#4b536a"><text font-family="Courier-Bold, Courier" font-size="13" font-weight="bold" transform="translate(96)"><tspan x="0" y="13">Tests</tspan></text><circle cx="81.5" cy="10.5" fill-rule="nonzero" r="4.5"/><text font-family="Courier-Bold, Courier" font-size="13" font-weight="bold" transform="translate(0 50)"><tspan x=".417" y="13">CSVReader</tspan></text><circle cx="81.5" cy="59.5" fill-rule="nonzero" r="4.5"/></g></g><g transform="matrix(1 0 0 -1 105 263.5)"><path d="m58.5 105.99142c14.6666667.292808 22-6.9088346 22-21.6049266s0-40.5828773 0-77.66035583" stroke="#4b536a" stroke-width="3"/><g fill="#4b536a"><text font-family="Courier-Bold, Courier" font-size="13" font-weight="bold" transform="matrix(1 0 0 -1 95 16)"><tspan x="0" y="13">Tests</tspan></text><circle cx="80.5" cy="6.5" fill-rule="nonzero" r="4.5"/><text font-family="Courier-Bold, Courier" font-size="13" font-weight="bold" transform="matrix(1 0 0 -1 0 65)"><tspan x=".417" y="13">CSVWriter</tspan></text><circle cx="80.5" cy="55.5" fill-rule="nonzero" r="4.5"/></g></g><g transform="translate(161 39.5)"><path d="m102.5 117.99142c14.666667.292808 22-6.908835 22-21.6049266 0-14.696092 0-40.5828773 0-77.6603558" stroke="#4b536a" stroke-width="3"/><g fill="#4b536a"><g font-family="Courier-Bold, Courier" font-size="13" font-weight="bold" transform="translate(140)"><text><tspan x="0" y="13">Codable</tspan></text><text><tspan x="0" y="29">Configuration</tspan></text></g><circle cx="124.5" cy="18.5" fill-rule="nonzero" r="4.5"/><g font-family="Courier-Bold, Courier" font-size="13" font-weight="bold" transform="translate(0 50)"><text><tspan x=".695" y="13">Reader &amp; Writer</tspan></text><text><tspan x="15.269" y="29">Configuration</tspan></text></g><circle cx="124.5" cy="67.5" fill-rule="nonzero" r="4.5"/></g></g><path d="m668.5 157.5 211.5-.5" stroke="#c1c9d8" stroke-linecap="square" stroke-width="3"/><g transform="matrix(1 0 0 -1 305 263.5)"><path d="m58.5 105.99142c14.6666667.292808 22-6.9088346 22-21.6049266s0-40.5828773 0-77.66035583" stroke="#4b536a" stroke-width="3"/><g fill="#4b536a"><text font-family="Courier-Bold, Courier" font-size="13" font-weight="bold" transform="matrix(1 0 0 -1 95 16)"><tspan x="0" y="13">Tests</tspan></text><circle cx="80.5" cy="6.5" fill-rule="nonzero" r="4.5"/><text font-family="Courier-Bold, Courier" font-size="13" font-weight="bold" transform="matrix(1 0 0 -1 0 65)"><tspan x=".417" y="13">Decodable</tspan></text><circle cx="80.5" cy="55.5" fill-rule="nonzero" r="4.5"/></g></g><g transform="translate(411 47.5)"><path d="m52.5 109.99142c14.6666667.292808 22-6.908835 22-21.6049266 0-14.696092 0-40.5828773 0-77.6603558" stroke="#c1c9d8" stroke-width="3"/><g fill="#c1c9d8"><text font-family="Courier-Bold, Courier" font-size="13" font-weight="bold" transform="translate(89)"><tspan x="0" y="13">Tests</tspan></text><circle cx="74.5" cy="10.5" fill-rule="nonzero" r="4.5"/><text font-family="Courier-Bold, Courier" font-size="13" font-weight="bold" transform="translate(0 50)"><tspan x=".704" y="13">Encoable</tspan></text><circle cx="74.5" cy="59.5" fill-rule="nonzero" r="4.5"/></g></g><g transform="matrix(1 0 0 -1 476 311.5)"><path d="m87.5 153.99142c14.666667.292808 22-6.908835 22-21.604927s0-57.2302594 0-127.60250301" stroke="#c1c9d8" stroke-width="3"/><g fill="#c1c9d8"><text font-family="Courier-Bold, Courier" font-size="13" font-weight="bold" transform="matrix(1 0 0 -1 58 16)"><tspan x=".565" y="13">Tests</tspan></text><circle cx="109.5" cy="5.5" fill-rule="nonzero" r="4.5"/><g font-family="Courier-Bold, Courier" font-size="13" font-weight="bold" transform="matrix(1 0 0 -1 124 71)"><text><tspan x="0" y="13">File System</tspan></text><text><tspan x="0" y="29">Support</tspan></text></g><circle cx="109.5" cy="54.5" fill-rule="nonzero" r="4.5"/><g font-family="Courier-Bold, Courier" font-size="13" font-weight="bold" transform="matrix(1 0 0 -1 0 120)"><text><tspan x=".269" y="13">Binary Reader</tspan></text><text><tspan x="36.704" y="29">&amp; Writer</tspan></text></g><circle cx="109.5" cy="103.5" fill-rule="nonzero" r="4.5"/></g></g><g transform="translate(633 .5)"><path d="m30.5 156.99142c14.6666667.292808 22-6.908835 22-21.604927s0-73.400302 0-77.386493" stroke="#4b536a" stroke-width="3"/><path d="m52.5 58v-50" stroke="#c1c9d8" stroke-width="3"/><text fill="#c1c9d8" font-family="Courier-Bold, Courier" font-size="13" font-weight="bold" transform="translate(0 .5)"><tspan x="0" y="13">Linux</tspan></text><g fill="#4b536a"><text font-family="Courier-Bold, Courier" font-size="13" font-weight="bold" transform="translate(15 97)"><tspan x=".139" y="13">SPM</tspan></text><text font-family="Courier-Bold, Courier" font-size="13" font-weight="bold" transform="translate(64 48.5)"><tspan x="0" y="13">Cocoapods</tspan></text><circle cx="52.5" cy="106.5" fill-rule="nonzero" r="4.5"/><circle cx="52.5" cy="58" fill-rule="nonzero" r="4.5"/></g><circle cx="52.5" cy="8.5" fill="#c1c9d8" fill-rule="nonzero" r="4.5"/></g><g transform="matrix(1 0 0 -1 676 311.5)"><path d="m87.5 153.99142c14.666667.292808 22-6.908835 22-21.604927s0-57.2302594 0-127.60250301" stroke="#c1c9d8" stroke-width="3"/><g fill="#c1c9d8"><text font-family="Courier-Bold, Courier" font-size="13" font-weight="bold" transform="matrix(1 0 0 -1 0 16)"><tspan x=".269" y="13">Documentation</tspan></text><circle cx="109.5" cy="5.5" fill-rule="nonzero" r="4.5"/><g font-family="Courier-Bold, Courier" font-size="13" font-weight="bold" transform="matrix(1 0 0 -1 124 71)"><text><tspan x="0" y="13">Encoding</tspan></text><text><tspan x="0" y="29">Inferrals</tspan></text></g><circle cx="109.5" cy="54.5" fill-rule="nonzero" r="4.5"/><g font-family="Courier-Bold, Courier" font-size="13" font-weight="bold" transform="matrix(1 0 0 -1 29 120)"><text><tspan x=".417" y="13">CSVReader</tspan></text><text><tspan x=".417" y="29">Inferrals</tspan></text></g><circle cx="109.5" cy="103.5" fill-rule="nonzero" r="4.5"/></g></g><path d="m0 157.5h666" stroke="#4b536a" stroke-linecap="square" stroke-width="3"/></g></svg>