<svg height="400" viewBox="0 0 900 400" width="900" xmlns="http://www.w3.org/2000/svg"><g fill="none" fill-rule="evenodd"><g transform="translate(14 90)"><path d="m59.5 109.99142c14.6666667.292808 22-6.908835 22-21.6049266 0-14.696092 0-40.5828773 0-77.6603558" stroke="#4b536a" stroke-width="3"/><g fill="#4b536a"><text font-family="Courier-Bold, Courier" font-size="13" font-weight="bold" letter-spacing="-.5142857"><tspan x="96" y="13">Tests</tspan></text><circle cx="81.5" cy="10.5" r="4.5"/><text font-family="Courier-Bold, Courier" font-size="13" font-weight="bold" letter-spacing="-.5142857"><tspan x=".417146" y="63">CSVReader</tspan></text><circle cx="81.5" cy="59.5" r="4.5"/></g></g><g transform="matrix(1 0 0 -1 115 306)"><path d="m58.5 105.99142c14.6666667.292808 22-6.9088346 22-21.6049266s0-40.5828773 0-77.66035583" stroke="#4b536a" stroke-width="3"/><g fill="#4b536a"><text font-family="Courier-Bold, Courier" font-size="13" font-weight="bold" letter-spacing="-.5142857" transform="matrix(1 0 0 -1 0 16)"><tspan x="95" y="13">Tests</tspan></text><circle cx="80.5" cy="6.5" r="4.5"/><text font-family="Courier-Bold, Courier" font-size="13" font-weight="bold" letter-spacing="-.5142857" transform="matrix(1 0 0 -1 0 114)"><tspan x=".417146" y="62">CSVWriter</tspan></text><circle cx="80.5" cy="55.5" r="4.5"/></g></g><g transform="translate(171 82)"><path d="m102.5 117.99142c14.666667.292808 22-6.908835 22-21.6049266 0-14.696092 0-40.5828773 0-77.6603558" stroke="#4b536a" stroke-width="3"/><g fill="#4b536a"><text font-family="Courier-Bold, Courier" font-size="13" font-weight="bold" letter-spacing="-.5142857"><tspan x="140" y="13">Codable</tspan> <tspan x="140" y="29">Configuration</tspan></text><circle cx="124.5" cy="18.5" r="4.5"/><text font-family="Courier-Bold, Courier" font-size="13" font-weight="bold" letter-spacing="-.5142857"><tspan x=".695243" y="63">Reader &amp; Writer</tspan> <tspan x="15.26921" y="79">Configuration</tspan></text><circle cx="124.5" cy="67.5" r="4.5"/></g></g><path d="m10 200h880" stroke="#c1c9d8" stroke-linecap="square" stroke-width="3"/><g transform="matrix(1 0 0 -1 315 306)"><path d="m58.5 105.99142c14.6666667.292808 22-6.9088346 22-21.6049266s0-40.5828773 0-77.66035583" stroke="#4b536a" stroke-width="3"/><g fill="#4b536a"><text font-family="Courier-Bold, Courier" font-size="13" font-weight="bold" letter-spacing="-.5142857" transform="matrix(1 0 0 -1 0 16)"><tspan x="95" y="13">Tests</tspan></text><circle cx="80.5" cy="6.5" r="4.5"/><text font-family="Courier-Bold, Courier" font-size="13" font-weight="bold" letter-spacing="-.5142857" transform="matrix(1 0 0 -1 0 114)"><tspan x=".417146" y="62">Decodable</tspan></text><circle cx="80.5" cy="55.5" r="4.5"/></g></g><g transform="translate(421 90)"><path d="m52.5 109.99142c14.6666667.292808 22-6.908835 22-21.6049266 0-14.696092 0-40.5828773 0-77.6603558" stroke="#c1c9d8" stroke-width="3"/><g fill="#c1c9d8"><text font-family="Courier-Bold, Courier" font-size="13" font-weight="bold" letter-spacing="-.5142857"><tspan x="89" y="13">Tests</tspan></text><circle cx="74.5" cy="10.5" r="4.5"/><text font-family="Courier-Bold, Courier" font-size="13" font-weight="bold" letter-spacing="-.5142857"><tspan x=".704129" y="63">Encoable</tspan></text><circle cx="74.5" cy="59.5" r="4.5"/></g></g><g transform="matrix(1 0 0 -1 486 354)"><path d="m87.5 153.99142c14.666667.292808 22-6.908835 22-21.604927s0-57.2302594 0-127.60250301" stroke="#c1c9d8" stroke-width="3"/><g fill="#c1c9d8"><text font-family="Courier-Bold, Courier" font-size="13" font-weight="bold" letter-spacing="-.5142857" transform="matrix(1 0 0 -1 0 16)"><tspan x="58.565081" y="13">Tests</tspan></text><circle cx="109.5" cy="5.5" r="4.5"/><text font-family="Courier-Bold, Courier" font-size="13" font-weight="bold" letter-spacing="-.5142857" transform="matrix(1 0 0 -1 0 110)"><tspan x="124" y="52">File System</tspan> <tspan x="124" y="68">Support</tspan></text><circle cx="109.5" cy="54.5" r="4.5"/><text font-family="Courier-Bold, Courier" font-size="13" font-weight="bold" letter-spacing="-.5142857" transform="matrix(1 0 0 -1 0 208)"><tspan x=".26921" y="101">Binary Reader</tspan> <tspan x="36.704129" y="117">&amp; Wrtier</tspan></text><circle cx="109.5" cy="103.5" r="4.5"/></g></g><g transform="translate(621 43)"><path d="m52.5 156.99142c14.6666667.292808 22-6.908835 22-21.604927s0-54.3353494 0-118.9177729" stroke="#c1c9d8" stroke-width="3"/><g fill="#c1c9d8"><text font-family="Courier-Bold, Courier" font-size="13" font-weight="bold" letter-spacing="-.5142857"><tspan x="22.565081" y="13">Linux</tspan> <tspan x="7.991113" y="29">Support</tspan></text><circle cx="74.5" cy="15.5" r="4.5"/><text font-family="Courier-Bold, Courier" font-size="13" font-weight="bold" letter-spacing="-.5142857"><tspan x="89" y="60">SPM</tspan></text><circle cx="74.5" cy="57.5" r="4.5"/><text font-family="Courier-Bold, Courier" font-size="13" font-weight="bold" letter-spacing="-.5142857"><tspan x=".704129" y="110">Carthage</tspan></text><circle cx="74.5" cy="106.5" r="4.5"/></g></g><g transform="matrix(1 0 0 -1 686 354)"><path d="m87.5 153.99142c14.666667.292808 22-6.908835 22-21.604927s0-57.2302594 0-127.60250301" stroke="#c1c9d8" stroke-width="3"/><g fill="#c1c9d8"><text font-family="Courier-Bold, Courier" font-size="13" font-weight="bold" letter-spacing="-.5142857" transform="matrix(1 0 0 -1 0 16)"><tspan x=".26921" y="13">Documentation</tspan></text><circle cx="109.5" cy="5.5" r="4.5"/><text font-family="Courier-Bold, Courier" font-size="13" font-weight="bold" letter-spacing="-.5142857" transform="matrix(1 0 0 -1 0 110)"><tspan x="124" y="52">Encoding</tspan> <tspan x="124" y="68">Inferrals</tspan></text><circle cx="109.5" cy="54.5" r="4.5"/><text font-family="Courier-Bold, Courier" font-size="13" font-weight="bold" letter-spacing="-.5142857" transform="matrix(1 0 0 -1 0 208)"><tspan x="29.417146" y="101">CSVReader</tspan> <tspan x="29.417146" y="117">Inferrals</tspan></text><circle cx="109.5" cy="103.5" r="4.5"/></g></g><path d="m10 200h364" stroke="#4b536a" stroke-linecap="square" stroke-width="3"/></g></svg>