<svg height="322" viewBox="0 0 800 322" width="800" xmlns="http://www.w3.org/2000/svg"><g fill="none" fill-rule="evenodd"><g stroke="#c1c9d8" stroke-linecap="round" stroke-width="3" transform="translate(632.5 151.5)"><path d="m132.5 6.75 10 5" transform="matrix(1 0 0 -1 0 18)"/><path d="m132.5.75 10 5"/><path d="m0 6h143"/></g><g transform="translate(5 47.5)"><path d="m59.5 109.99142c14.6666667.292808 22-6.908835 22-21.6049266 0-14.696092 0-40.5828773 0-77.6603558" stroke="#4b536a" stroke-width="3"/><g fill="#4b536a"><g transform="translate(77)"><text font-family="Courier-Bold, Courier" font-size="13" font-weight="bold"><tspan x="19" y="13">Tests</tspan></text><circle cx="4.5" cy="10.5" fill-rule="nonzero" r="4.5"/></g><g transform="translate(.417 50)"><text font-family="Courier-Bold, Courier" font-size="13" font-weight="bold"><tspan x="0" y="13">CSVReader</tspan></text><circle cx="81.083" cy="9.5" fill-rule="nonzero" r="4.5"/></g></g></g><path d="m59.5 99.99142c14.6666667.292808 22-6.908835 22-21.6049266 0-14.696092 0-40.5828773 0-77.6603558" stroke="#4b536a" stroke-width="3" transform="matrix(1 0 0 -1 75 257.526)"/><g fill="#4b536a" transform="translate(152 245.8)"><text font-family="Courier-Bold, Courier" font-size="13" font-weight="bold"><tspan x="19" y="13">Tests</tspan></text><circle cx="4.5" cy="10.5" fill-rule="nonzero" r="4.5"/></g><g fill="#4b536a" transform="translate(75.417 196.8)"><text font-family="Courier-Bold, Courier" font-size="13" font-weight="bold"><tspan x="0" y="13">CSVWriter</tspan></text><circle cx="81.083" cy="9.5" fill-rule="nonzero" r="4.5"/></g><g transform="translate(134 39.5)"><path d="m90.5 117.99142c14.666667.292808 22-6.908835 22-21.6049266 0-14.696092 0-40.5828773 0-77.6603558" stroke="#4b536a" stroke-width="3"/><g fill="#4b536a"><g transform="translate(108)"><text font-family="Courier-Bold, Courier" font-size="13" font-weight="bold"><tspan x="20" y="29">Configuration</tspan></text><text font-family="Courier-Bold, Courier" font-size="13" font-weight="bold"><tspan x="20" y="13">Codable</tspan></text><circle cx="4.5" cy="18.5" fill-rule="nonzero" r="4.5"/></g><g transform="translate(.695 50)"><text font-family="Courier-Bold, Courier" font-size="13" font-weight="bold"><tspan x=".574" y="29">Configuration</tspan></text><text font-family="Courier-Bold, Courier" font-size="13" font-weight="bold"><tspan x="0" y="13">Reader/Writer</tspan></text><circle cx="111.805" cy="17.5" fill-rule="nonzero" r="4.5"/></g></g></g><path d="m59.5 99.99142c14.6666667.292808 22-6.908835 22-21.6049266 0-14.696092 0-40.5828773 0-77.6603558" stroke="#4b536a" stroke-width="3" transform="matrix(1 0 0 -1 245 257.526)"/><g fill="#4b536a" transform="translate(322 245.8)"><text font-family="Courier-Bold, Courier" font-size="13" font-weight="bold"><tspan x="19" y="13">Tests</tspan></text><circle cx="4.5" cy="10.5" fill-rule="nonzero" r="4.5"/></g><g fill="#4b536a" transform="translate(245.417 196.8)"><text font-family="Courier-Bold, Courier" font-size="13" font-weight="bold"><tspan x="0" y="13">Decodable</tspan></text><circle cx="81.083" cy="9.5" fill-rule="nonzero" r="4.5"/></g><g transform="translate(337 47.5)"><path d="m52.5 109.99142c14.6666667.292808 22-6.908835 22-21.6049266 0-14.696092 0-40.5828773 0-77.6603558" stroke="#c1c9d8" stroke-width="3"/><g fill="#c1c9d8"><g transform="translate(70)"><text font-family="Courier-Bold, Courier" font-size="13" font-weight="bold"><tspan x="19" y="13">Tests</tspan></text><circle cx="4.5" cy="10.5" fill-rule="nonzero" r="4.5"/></g><g transform="translate(.704 50)"><text font-family="Courier-Bold, Courier" font-size="13" font-weight="bold"><tspan x="0" y="13">Encoable</tspan></text><circle cx="73.796" cy="9.5" fill-rule="nonzero" r="4.5"/></g></g></g><g transform="translate(401 156.8)"><path d="m66.5 49.49142c14.6666667.292808 22-6.908835 22-21.6049266 0-14.696092 0 9.9171227 0-27.1603558" stroke="#4b536a" stroke-width="3" transform="matrix(1 0 0 -1 0 50.226)"/><path d="m88.5 149.5v-100" stroke="#c1c9d8" stroke-width="3"/><g fill="#c1c9d8" transform="translate(9.417 133)"><text font-family="Courier-Bold, Courier" font-size="13" font-weight="bold"><tspan x=".583" y="29">Inference</tspan></text><text font-family="Courier-Bold, Courier" font-size="13" font-weight="bold"><tspan x=".583" y="13">Delimiter</tspan></text><circle cx="79.083" cy="16" fill-rule="nonzero" r="4.5"/></g><g fill="#c1c9d8" transform="translate(84 82)"><text font-family="Courier-Bold, Courier" font-size="13" font-weight="bold"><tspan x="19" y="29">Inference</tspan></text><text font-family="Courier-Bold, Courier" font-size="13" font-weight="bold"><tspan x="19" y="13">Headers</tspan></text><circle cx="4.5" cy="17.5" fill-rule="nonzero" r="4.5"/></g><g fill="#4b536a" transform="translate(.417 32)"><text font-family="Courier-Bold, Courier" font-size="13" font-weight="bold"><tspan x="16" y="30">Markings</tspan></text><text font-family="Courier-Bold, Courier" font-size="13" font-weight="bold"><tspan x="0" y="13">Byte Order</tspan></text><circle cx="88.083" cy="17.5" fill-rule="nonzero" r="4.5"/></g></g><g transform="translate(518 .5)"><path d="m30.5 156.99142c14.6666667.292808 22-6.908835 22-21.604927s0-73.400302 0-77.386493" stroke="#4b536a" stroke-width="3"/><path d="m52.5 58v-50" stroke="#c1c9d8" stroke-width="3"/><g fill="#c1c9d8" transform="translate(0 .5)"><text font-family="Courier-Bold, Courier" font-size="13" font-weight="bold"><tspan x="0" y="13">Linux</tspan></text><circle cx="52.5" cy="8" fill-rule="nonzero" r="4.5"/></g><g fill="#4b536a"><g transform="translate(48 48.5)"><text font-family="Courier-Bold, Courier" font-size="13" font-weight="bold"><tspan x="16" y="13">Cocoapods</tspan></text><circle cx="4.5" cy="9.5" fill-rule="nonzero" r="4.5"/></g><g transform="translate(15.139 97)"><text font-family="Courier-Bold, Courier" font-size="13" font-weight="bold"><tspan x="0" y="13">SPM</tspan></text><circle cx="37.361" cy="9.5" fill-rule="nonzero" r="4.5"/></g></g></g><g transform="translate(567 156.8)"><path d="m60.5 99.49142c14.6666667.292808 22-6.908835 22-21.6049266 0-14.696092 0-40.0828773 0-77.1603558" stroke="#4b536a" stroke-width="3" transform="matrix(1 0 0 -1 0 100.226)"/><path d="m82.5 149.5v-50" stroke="#c1c9d8" stroke-width="3"/><g fill="#c1c9d8" transform="translate(28.417 138)"><text font-family="Courier-Bold, Courier" font-size="13" font-weight="bold"><tspan x=".583" y="13">Tests</tspan></text><circle cx="54.083" cy="11" fill-rule="nonzero" r="4.5"/></g><g fill="#4b536a"><g transform="translate(78 82)"><text font-family="Courier-Bold, Courier" font-size="13" font-weight="bold"><tspan x="19" y="29">Support</tspan></text><text font-family="Courier-Bold, Courier" font-size="13" font-weight="bold"><tspan x="19" y="13">File System</tspan></text><circle cx="4.5" cy="17.5" fill-rule="nonzero" r="4.5"/></g><g transform="translate(.417 40)"><text font-family="Courier-Bold, Courier" font-size="13" font-weight="bold"><tspan x="0" y="13">Presample</tspan></text><circle cx="82.083" cy="9.5" fill-rule="nonzero" r="4.5"/></g></g></g><g transform="translate(624 37.5)"><path d="m67.5 119.99142c14.6666667.292808 22-6.908835 22-21.6049266 0-14.696092 0-40.5828773 0-77.6603558" stroke="#c1c9d8" stroke-width="3"/><g fill="#c1c9d8"><g transform="translate(85)"><text font-family="Courier-Bold, Courier" font-size="13" font-weight="bold"><tspan x="17" y="13.5">CoreML</tspan></text><text font-family="Courier-Bold, Courier" font-size="13" font-weight="bold"><tspan x="17" y="29.5">Inference</tspan></text><circle cx="4.5" cy="20.5" fill-rule="nonzero" r="4.5"/></g><g transform="translate(.704 59)"><text font-family="Courier-Bold, Courier" font-size="13" font-weight="bold"><tspan x=".296" y="13.5">Benchmarks</tspan></text><circle cx="88.796" cy="10.5" fill-rule="nonzero" r="4.5"/></g></g></g><path d="m1 157.5h626.5" stroke="#4b536a" stroke-linecap="square" stroke-width="3"/></g></svg>