<svg height="228" viewBox="0 0 716 228" width="716" xmlns="http://www.w3.org/2000/svg"><g fill="none" fill-rule="evenodd"><g stroke="#c1c9d8" stroke-linecap="round" stroke-width="3" transform="translate(457 110)"><path d="m225.5 6.75 10 5" transform="matrix(1 0 0 -1 0 18)"/><path d="m225.5.75 10 5"/><path d="m0 6h232"/></g><g transform="translate(0 7)"><path d="m37.5 108.99142c14.6666667.292808 22-6.908835 22-21.6049266 0-14.696092 0-40.5828773 0-77.6603558" stroke="#4b536a" stroke-width="3"/><g fill="#4b536a"><g transform="translate(55)"><text font-family="Courier-Bold, Courier" font-size="13" font-weight="bold"><tspan x="16" y="13.5">Tests</tspan></text><circle cx="4.5" cy="9.5" fill-rule="nonzero" r="4.5"/></g><g transform="translate(.417 49)"><text font-family="Courier-Bold, Courier" font-size="13" font-weight="bold"><tspan x=".583" y="13.5">Reader</tspan></text><circle cx="59.083" cy="9.5" fill-rule="nonzero" r="4.5"/></g></g></g><path d="m37.5 99.9913572c14.6666667.2949498 22-6.9593696 22-21.7629556 0-14.8035864 0-40.8797203 0-78.2284016" stroke="#4b536a" stroke-width="3" transform="matrix(1 0 0 -1 69 216)"/><g fill="#4b536a" transform="translate(124 206)"><text font-family="Courier-Bold, Courier" font-size="13" font-weight="bold"><tspan x="16" y="13.2">Tests</tspan></text><circle cx="4.5" cy="8.5" fill-rule="nonzero" r="4.5"/></g><g fill="#4b536a" transform="translate(69.417 156)"><text font-family="Courier-Bold, Courier" font-size="13" font-weight="bold"><tspan x=".583" y="13.2">Writer</tspan></text><circle cx="59.083" cy="8.5" fill-rule="nonzero" r="4.5"/></g><g transform="translate(108)"><path d="m69.5 115.99142c14.666667.292808 22-6.908835 22-21.6049266 0-14.696092 0-40.5828773 0-77.6603558" stroke="#4b536a" stroke-width="3"/><g fill="#4b536a"><g transform="translate(87)"><text font-family="Courier-Bold, Courier" font-size="13" font-weight="bold"><tspan x="16" y="29.5">Config</tspan></text><text font-family="Courier-Bold, Courier" font-size="13" font-weight="bold"><tspan x="16" y="13.5">Declarative</tspan></text><circle cx="4.5" cy="16.5" fill-rule="nonzero" r="4.5"/></g><g transform="translate(.695 49)"><text font-family="Courier-Bold, Courier" font-size="13" font-weight="bold"><tspan x="32.071" y="29.5">Config</tspan></text><text font-family="Courier-Bold, Courier" font-size="13" font-weight="bold"><tspan x="1.292" y="13.5">Imperative</tspan></text><circle cx="90.805" cy="16.5" fill-rule="nonzero" r="4.5"/></g></g></g><path d="m61.5 99.9913572c14.6666667.2949498 22-6.9593696 22-21.7629556 0-14.8035864 0-40.8797203 0-78.2284016" stroke="#4b536a" stroke-width="3" transform="matrix(1 0 0 -1 186 216)"/><g fill="#4b536a" transform="translate(265 205)"><text font-family="Courier-Bold, Courier" font-size="13" font-weight="bold"><tspan x="16" y="13.2">Tests</tspan></text><circle cx="4.5" cy="9.5" fill-rule="nonzero" r="4.5"/></g><g fill="#4b536a" transform="translate(186.417 156)"><text font-family="Courier-Bold, Courier" font-size="13" font-weight="bold"><tspan x=".583" y="13.2">Decodable</tspan></text><circle cx="83.083" cy="8.5" fill-rule="nonzero" r="4.5"/></g><g transform="translate(264 8)"><path d="m53.5 107.99142c14.6666667.292808 22-6.908835 22-21.6049266 0-14.696092 0-40.5828773 0-77.6603558" stroke="#4b536a" stroke-width="3"/><g fill="#4b536a"><g transform="translate(71)"><text font-family="Courier-Bold, Courier" font-size="13" font-weight="bold"><tspan x="16" y="13.5">Tests</tspan></text><circle cx="4.5" cy="8.5" fill-rule="nonzero" r="4.5"/></g><g transform="translate(.704 49)"><text font-family="Courier-Bold, Courier" font-size="13" font-weight="bold"><tspan x=".296" y="13.5">Encoable</tspan></text><circle cx="74.796" cy="8.5" fill-rule="nonzero" r="4.5"/></g></g></g><path d="m61.5 99.9913135c14.6666667.2964425 22-6.9945984 22-21.8731212 0-14.8785231 0-40.5804494 0-78.1181923" stroke="#4b536a" stroke-width="3" transform="matrix(1 0 0 -1 326 216)"/><g fill="#4b536a" transform="translate(405 205)"><text font-family="Courier-Bold, Courier" font-size="13" font-weight="bold"><tspan x="16" y="13.2">Linux</tspan></text><circle cx="4.5" cy="9.5" fill-rule="nonzero" r="4.5"/></g><g fill="#4b536a" transform="translate(326.417 148)"><text font-family="Courier-Bold, Courier" font-size="13" font-weight="bold"><tspan x=".583" y="29.2">Cocoapods</tspan></text><text font-family="Courier-Bold, Courier" font-size="13" font-weight="bold"><tspan x="31.583" y="13.2">SPM &amp;</tspan></text><circle cx="83.083" cy="16.5" fill-rule="nonzero" r="4.5"/></g><g transform="translate(381 8)"><path d="m76.5 107.99142c14.6666667.292808 22-6.908835 22-21.604927s0-73.400302 0-77.386493" stroke="#4b536a" stroke-width="3"/><g fill="#4b536a"><g transform="translate(94 .5)"><text font-family="Courier-Bold, Courier" font-size="13" font-weight="bold"><tspan x="16" y="13.5">Tests</tspan></text><circle cx="4.5" cy="8.5" fill-rule="nonzero" r="4.5"/></g><g transform="translate(.139 42)"><text font-family="Courier-Bold, Courier" font-size="13" font-weight="bold"><tspan x="32.113" y="28">Support</tspan></text><text font-family="Courier-Bold, Courier" font-size="13" font-weight="bold"><tspan x="1.047" y="13.5">File System</tspan></text><circle cx="98.361" cy="15.5" fill-rule="nonzero" r="4.5"/></g></g></g><path d="m69.5 98.4914358c14.6666667.2922672 22-6.8960743 22-21.5650222 0-14.6689482 0-39.9174173 0-76.9264136" stroke="#c1c9d8" stroke-width="3" transform="matrix(1 0 0 -1 458 214.5)"/><g fill="#c1c9d8" transform="translate(545 206)"><text font-family="Courier-Bold, Courier" font-size="13" font-weight="bold"><tspan x="16" y="13">Optimizations</tspan></text><circle cx="4.5" cy="8.5" fill-rule="nonzero" r="4.5"/></g><g fill="#c1c9d8" transform="translate(458.417 156)"><text font-family="Courier-Bold, Courier" font-size="13" font-weight="bold"><tspan x="1.57" y="13">Benchmarks</tspan></text><circle cx="91.083" cy="8.5" fill-rule="nonzero" r="4.5"/></g><g transform="translate(536 1)"><path d="m61.5 114.99142c14.6666667.292808 22-6.908835 22-21.6049266 0-14.696092 0-40.5828773 0-77.6603558" stroke="#c1c9d8" stroke-width="3"/><g fill="#c1c9d8"><g transform="translate(79)"><text font-family="Courier-Bold, Courier" font-size="13" font-weight="bold"><tspan x="16" y="13">Delimiters</tspan></text><text font-family="Courier-Bold, Courier" font-size="13" font-weight="bold"><tspan x="16" y="29">Inference</tspan></text><circle cx="4.5" cy="15.5" fill-rule="nonzero" r="4.5"/></g><g transform="translate(.704 48)"><text font-family="Courier-Bold, Courier" font-size="13" font-weight="bold"><tspan x="16.687" y="13">Headers</tspan></text><text font-family="Courier-Bold, Courier" font-size="13" font-weight="bold"><tspan x="1.085" y="30">Inference</tspan></text><circle cx="82.796" cy="16.5" fill-rule="nonzero" r="4.5"/></g></g></g><path d="m0 116h458" stroke="#4b536a" stroke-linecap="square" stroke-width="3"/></g></svg>