<svg height="322" viewBox="0 0 740 322" width="740" xmlns="http://www.w3.org/2000/svg"><g fill="none" fill-rule="evenodd"><g stroke="#c1c9d8" stroke-linecap="round" stroke-width="3" transform="translate(458 152)"><path d="m225.5 6.75 10 5" transform="matrix(1 0 0 -1 0 18)"/><path d="m225.5.75 10 5"/><path d="m0 6h232"/></g><g transform="translate(1 49)"><path d="m37.5 108.99142c14.6666667.292808 22-6.908835 22-21.6049266 0-14.696092 0-40.5828773 0-77.6603558" stroke="#4b536a" stroke-width="3"/><g fill="#4b536a"><g transform="translate(55)"><text font-family="Courier-Bold, Courier" font-size="13" font-weight="bold"><tspan x="16" y="13.5">Tests</tspan></text><circle cx="4.5" cy="9.5" fill-rule="nonzero" r="4.5"/></g><g transform="translate(.417 49)"><text font-family="Courier-Bold, Courier" font-size="13" font-weight="bold"><tspan x=".583" y="13.5">Reader</tspan></text><circle cx="59.083" cy="9.5" fill-rule="nonzero" r="4.5"/></g></g></g><path d="m37.5 99.9913572c14.6666667.2949498 22-6.9593696 22-21.7629556 0-14.8035864 0-40.8797203 0-78.2284016" stroke="#4b536a" stroke-width="3" transform="matrix(1 0 0 -1 70 258)"/><g fill="#4b536a" transform="translate(125 248)"><text font-family="Courier-Bold, Courier" font-size="13" font-weight="bold"><tspan x="16" y="13.2">Tests</tspan></text><circle cx="4.5" cy="8.5" fill-rule="nonzero" r="4.5"/></g><g fill="#4b536a" transform="translate(70.417 198)"><text font-family="Courier-Bold, Courier" font-size="13" font-weight="bold"><tspan x=".583" y="13.2">Writer</tspan></text><circle cx="59.083" cy="8.5" fill-rule="nonzero" r="4.5"/></g><g transform="translate(140 42)"><path d="m38.5 115.99142c14.666667.292808 22-6.908835 22-21.6049266 0-14.696092 0-40.5828773 0-77.6603558" stroke="#4b536a" stroke-width="3"/><g fill="#4b536a"><g transform="translate(56)"><text font-family="Courier-Bold, Courier" font-size="13" font-weight="bold"><tspan x="16" y="29.5">Config</tspan></text><text font-family="Courier-Bold, Courier" font-size="13" font-weight="bold"><tspan x="16" y="13.5">Codable</tspan></text><circle cx="4.5" cy="16.5" fill-rule="nonzero" r="4.5"/></g><g transform="translate(.695 49)"><text font-family="Courier-Bold, Courier" font-size="13" font-weight="bold"><tspan x="1.071" y="29.5">Config</tspan></text><text font-family="Courier-Bold, Courier" font-size="13" font-weight="bold"><tspan x="1.497" y="13.5">Active</tspan></text><circle cx="59.805" cy="16.5" fill-rule="nonzero" r="4.5"/></g></g></g><path d="m61.5 99.9913572c14.6666667.2949498 22-6.9593696 22-21.7629556 0-14.8035864 0-40.8797203 0-78.2284016" stroke="#4b536a" stroke-width="3" transform="matrix(1 0 0 -1 187 258)"/><g fill="#4b536a" transform="translate(266 247)"><text font-family="Courier-Bold, Courier" font-size="13" font-weight="bold"><tspan x="16" y="13.2">Tests</tspan></text><circle cx="4.5" cy="9.5" fill-rule="nonzero" r="4.5"/></g><g fill="#4b536a" transform="translate(187.417 198)"><text font-family="Courier-Bold, Courier" font-size="13" font-weight="bold"><tspan x=".583" y="13.2">Decodable</tspan></text><circle cx="83.083" cy="8.5" fill-rule="nonzero" r="4.5"/></g><g transform="translate(265 50)"><path d="m53.5 107.99142c14.6666667.292808 22-6.908835 22-21.6049266 0-14.696092 0-40.5828773 0-77.6603558" stroke="#4b536a" stroke-width="3"/><g fill="#4b536a"><g transform="translate(71)"><text font-family="Courier-Bold, Courier" font-size="13" font-weight="bold"><tspan x="16" y="13.5">Tests</tspan></text><circle cx="4.5" cy="8.5" fill-rule="nonzero" r="4.5"/></g><g transform="translate(.704 49)"><text font-family="Courier-Bold, Courier" font-size="13" font-weight="bold"><tspan x=".296" y="13.5">Encoable</tspan></text><circle cx="74.796" cy="8.5" fill-rule="nonzero" r="4.5"/></g></g></g><path d="m61.5 99.9913135c14.6666667.2964425 22-6.9945984 22-21.8731212 0-14.8785231 0-40.5804494 0-78.1181923" stroke="#4b536a" stroke-width="3" transform="matrix(1 0 0 -1 327 258)"/><g fill="#4b536a" transform="translate(406 247)"><text font-family="Courier-Bold, Courier" font-size="13" font-weight="bold"><tspan x="16" y="13.2">Linux</tspan></text><circle cx="4.5" cy="9.5" fill-rule="nonzero" r="4.5"/></g><g fill="#4b536a" transform="translate(327.417 190)"><text font-family="Courier-Bold, Courier" font-size="13" font-weight="bold"><tspan x=".583" y="29.2">Cocoapods</tspan></text><text font-family="Courier-Bold, Courier" font-size="13" font-weight="bold"><tspan x="31.583" y="13.2">SPM &amp;</tspan></text><circle cx="83.083" cy="16.5" fill-rule="nonzero" r="4.5"/></g><g transform="translate(389 1)"><path d="m69.5 156.99142c14.6666667.292808 22-6.908835 22-21.604927s0-122.900302 0-126.886493" stroke="#4b536a" stroke-width="3"/><g fill="#4b536a"><g transform="translate(48 .5)"><text font-family="Courier-Bold, Courier" font-size="13" font-weight="bold"><tspan x="0" y="13">Test</tspan></text><circle cx="43.5" cy="8" fill-rule="nonzero" r="4.5"/></g><g transform="translate(87 42.5)"><text font-family="Courier-Bold, Courier" font-size="13" font-weight="bold"><tspan x="16" y="29">Support</tspan></text><text font-family="Courier-Bold, Courier" font-size="13" font-weight="bold"><tspan x="16" y="13">File System</tspan></text><circle cx="4.5" cy="15.5" fill-rule="nonzero" r="4.5"/></g><g transform="translate(.139 91)"><text font-family="Courier-Bold, Courier" font-size="13" font-weight="bold"><tspan x="16.722" y="28">Markings</tspan></text><text font-family="Courier-Bold, Courier" font-size="13" font-weight="bold"><tspan x=".861" y="13.5">Byte Order</tspan></text><circle cx="91.361" cy="15.5" fill-rule="nonzero" r="4.5"/></g></g></g><path d="m61.5 147.991436c14.6666667.292267 22-6.896075 22-21.565022 0-14.668949 0-89.4174177 0-126.426414" stroke="#c1c9d8" stroke-width="3" transform="matrix(1 0 0 -1 467 306)"/><g fill="#c1c9d8"><g transform="translate(496.417 295)"><text font-family="Courier-Bold, Courier" font-size="13" font-weight="bold"><tspan x=".583" y="13">Tests</tspan></text><circle cx="54.083" cy="11" fill-rule="nonzero" r="4.5"/></g><g transform="translate(546 239)"><text font-family="Courier-Bold, Courier" font-size="13" font-weight="bold"><tspan x="19" y="29">Inference</tspan></text><text font-family="Courier-Bold, Courier" font-size="13" font-weight="bold"><tspan x="19" y="13">Delimiters</tspan></text><circle cx="4.5" cy="17.5" fill-rule="nonzero" r="4.5"/></g><g transform="translate(467.417 190)"><text font-family="Courier-Bold, Courier" font-size="13" font-weight="bold"><tspan x=".583" y="29.2">Inference</tspan></text><text font-family="Courier-Bold, Courier" font-size="13" font-weight="bold"><tspan x="16.583" y="13.2">Headers</tspan></text><circle cx="83.083" cy="16.5" fill-rule="nonzero" r="4.5"/></g></g><g transform="translate(531 49)"><path d="m67.5 108.99142c14.6666667.292808 22-6.908835 22-21.6049266 0-14.696092 0-40.5828773 0-77.6603558" stroke="#c1c9d8" stroke-width="3"/><g fill="#c1c9d8"><g transform="translate(85)"><text font-family="Courier-Bold, Courier" font-size="13" font-weight="bold"><tspan x="16" y="13.5">Optimizations</tspan></text><circle cx="4.5" cy="9.5" fill-rule="nonzero" r="4.5"/></g><g transform="translate(.704 48)"><text font-family="Courier-Bold, Courier" font-size="13" font-weight="bold"><tspan x=".296" y="13.5">Benchmarks</tspan></text><circle cx="88.796" cy="10.5" fill-rule="nonzero" r="4.5"/></g></g></g><path d="m1 158h457.5" stroke="#4b536a" stroke-linecap="square" stroke-width="3"/></g></svg>